<svg width="1000" height="1000" viewBox="0 0 1000 1000" fill="none" xmlns="http://www.w3.org/2000/svg">
<rect width="1000" height="1000" fill="white"/>
<path d="M498.852 564.961L666.001 799.458C687.091 829.045 729.709 832.59 755.397 806.896C776.318 785.97 778.414 752.753 760.289 729.364L510.67 407.25C504.677 399.517 493.003 399.498 486.986 407.213L238.878 725.307C220.632 748.7 222.531 781.989 243.32 803.154C269.086 829.386 312.286 826.011 333.665 796.096L498.852 564.961Z" fill="#303030"/>
<path d="M658 392H720C729.941 392 738 383.941 738 374V162C738 152.059 729.941 144 720 144H658C648.059 144 640 152.059 640 162V374C640 383.941 648.059 392 658 392Z" fill="#10B9B3"/>
<path d="M494.761 668.058C495.528 666.71 497.472 666.71 498.239 668.058L534.602 732.023C536.118 734.69 534.192 738 531.125 738H461.875C458.808 738 456.882 734.69 458.398 732.023L494.761 668.058Z" fill="#C8C8C8"/>
<rect x="672" y="386" width="35" height="2" rx="1" fill="#D9D9D9"/>
</svg>
