<?xml version="1.0" standalone="no"?>
<!DOCTYPE svg PUBLIC "-//W3C//DTD SVG 20010904//EN"
 "http://www.w3.org/TR/2001/REC-SVG-20010904/DTD/svg10.dtd">
<svg version="1.0" xmlns="http://www.w3.org/2000/svg"
 width="600.000000pt" height="603.000000pt" viewBox="0 0 600.000000 603.000000"
 preserveAspectRatio="xMidYMid meet">
<g transform="translate(0.000000,603.000000) scale(0.100000,-0.100000)"
fill="#000000" stroke="none">
<path d="M2787 5889 c-507 -42 -1006 -222 -1417 -513 -207 -146 -458 -384
-606 -576 -315 -406 -520 -885 -596 -1392 -29 -193 -31 -581 -5 -768 72 -509
268 -977 585 -1399 183 -243 497 -528 769 -697 595 -370 1313 -511 1981 -388
793 145 1453 585 1904 1269 91 137 249 452 302 600 142 398 199 809 166 1200
-38 443 -156 829 -368 1205 -161 285 -333 502 -573 724 -570 524 -1370 799
-2142 735z m138 -20 c-22 -4 -57 -11 -79 -14 -21 -4 -36 -8 -34 -11 3 -2 38 1
79 8 123 21 494 14 533 -10 6 -3 28 -5 49 -3 25 1 36 -2 32 -9 -3 -5 -1 -10 5
-10 6 0 9 -4 5 -9 -3 -5 0 -13 6 -17 8 -4 9 -3 5 4 -4 7 0 12 11 13 16 0 16 1
-2 9 -14 7 -8 8 20 3 22 -3 41 -9 43 -14 2 -4 9 -6 16 -3 32 12 442 -116 470
-147 8 -9 7 -10 -3 -4 -10 5 -12 4 -7 -4 5 -7 13 -8 23 -2 12 6 37 -1 85 -26
38 -19 66 -38 64 -42 -3 -4 4 -7 16 -6 23 2 127 -51 143 -73 6 -7 15 -12 20
-11 11 3 75 -28 75 -37 0 -3 -5 -2 -12 2 -7 5 -8 3 -4 -5 5 -7 14 -10 21 -7
16 6 40 -20 26 -28 -5 -3 -16 -3 -24 0 -8 3 -17 1 -20 -3 -7 -11 38 -11 49 0
10 9 27 9 20 -1 -2 -4 5 -9 17 -9 12 -1 27 -9 33 -18 6 -8 16 -15 21 -15 17 0
55 -39 48 -49 -3 -6 0 -8 8 -5 8 3 23 -3 33 -14 11 -10 27 -22 38 -26 14 -5
16 -9 7 -20 -15 -18 6 -34 22 -17 9 9 7 11 -8 6 -16 -5 -17 -5 -5 3 17 13 30
6 30 -14 0 -8 4 -13 8 -12 4 2 23 -9 41 -25 29 -24 37 -38 40 -69 1 -5 6 -8
12 -8 8 0 8 5 -1 15 -7 8 -9 15 -5 15 14 0 45 -32 45 -46 0 -7 4 -16 10 -19 6
-4 7 1 4 12 -4 11 4 7 21 -12 14 -16 41 -43 58 -59 18 -16 25 -25 17 -21 -8 4
1 -6 20 -23 19 -17 38 -31 43 -32 4 0 7 -5 7 -11 0 -5 -5 -7 -12 -3 -7 4 -8 3
-4 -4 4 -6 14 -8 24 -5 9 3 14 3 10 -1 -3 -4 1 -16 10 -25 71 -76 80 -88 71
-102 -5 -8 -9 -18 -9 -24 1 -5 5 -2 11 8 12 21 29 13 29 -14 0 -10 6 -19 14
-19 8 0 18 -9 21 -20 3 -11 11 -20 16 -20 5 0 9 -7 9 -15 0 -8 5 -15 10 -15 6
0 10 -6 10 -14 0 -8 7 -16 15 -20 8 -3 15 -13 15 -23 0 -10 14 -31 30 -47 16
-16 27 -33 23 -39 -3 -5 3 -17 15 -26 23 -18 82 -123 82 -147 0 -8 5 -12 10
-9 6 3 10 3 10 -2 0 -4 3 -19 7 -32 5 -18 3 -22 -7 -16 -8 5 -11 4 -6 -3 4 -6
13 -9 21 -5 8 3 15 0 15 -5 0 -6 13 -39 29 -74 16 -34 27 -67 24 -72 -3 -5 -1
-6 5 -2 7 4 14 -4 18 -21 3 -15 8 -35 11 -43 4 -8 5 -18 5 -22 -1 -5 3 -8 10
-8 6 0 9 -3 5 -6 -3 -4 3 -25 14 -47 12 -22 19 -50 16 -63 -2 -13 -1 -21 4
-19 4 3 10 -13 14 -35 4 -22 10 -40 14 -40 4 0 13 -24 20 -52 7 -29 19 -75 26
-103 20 -72 67 -334 61 -343 -2 -4 2 -59 10 -122 14 -118 18 -407 4 -320 -9
60 -10 50 -13 -125 -2 -82 -7 -157 -12 -165 -5 -8 -11 -33 -12 -55 -1 -22 -3
-47 -3 -55 -2 -29 -23 -116 -47 -200 -24 -81 -30 -109 -32 -138 -1 -7 -5 -10
-11 -7 -5 3 -10 -2 -11 -12 0 -10 -3 -29 -5 -43 -7 -39 -86 -230 -93 -225 -4
2 -8 -8 -9 -23 -1 -14 -9 -36 -17 -48 -8 -13 -15 -31 -15 -41 0 -15 -2 -16
-10 -3 -8 12 -10 9 -10 -12 0 -16 -5 -28 -11 -28 -5 0 -7 -4 -4 -10 3 -5 1
-10 -5 -10 -7 0 -10 -6 -7 -14 3 -8 0 -20 -8 -26 -7 -6 -19 -25 -26 -43 -7
-18 -20 -41 -30 -52 -10 -11 -18 -22 -17 -25 1 -13 -45 -79 -52 -75 -5 3 -12
0 -16 -6 -4 -8 -3 -9 4 -5 21 13 13 -13 -17 -54 -15 -22 -32 -36 -36 -32 -5 4
-5 -1 -2 -11 4 -11 3 -16 -3 -12 -6 3 -10 -1 -10 -9 0 -9 -4 -16 -8 -16 -4 0
-16 -15 -26 -32 -27 -46 -54 -70 -69 -62 -8 5 -7 2 2 -9 7 -9 10 -17 5 -17 -5
0 -20 -17 -34 -38 -26 -41 -65 -80 -98 -99 -27 -16 -35 -16 -26 -1 4 7 3 8 -5
4 -9 -6 -9 -11 0 -22 10 -12 14 -12 26 3 13 16 13 16 3 -5 -7 -15 -17 -21 -26
-18 -8 3 -13 2 -10 -3 3 -5 -24 -38 -59 -74 -36 -36 -65 -63 -65 -60 0 4 -6 0
-12 -8 -7 -8 -27 -27 -45 -43 -29 -26 -34 -27 -50 -15 -16 13 -17 12 -5 -3 12
-15 8 -21 -29 -47 -23 -17 -46 -28 -52 -24 -6 3 -7 1 -3 -5 10 -17 -42 -62
-61 -55 -10 4 -14 2 -10 -4 9 -14 -19 -37 -34 -27 -7 4 -9 3 -5 -4 3 -6 -2
-16 -13 -21 -26 -14 -40 -14 -21 0 13 9 13 10 0 6 -8 -2 -14 -9 -13 -15 3 -14
-54 -55 -66 -47 -5 3 -16 -3 -23 -13 -7 -10 -24 -25 -38 -32 -14 -7 -27 -16
-30 -19 -16 -20 -48 -29 -60 -18 -10 9 -11 9 -5 -2 6 -11 4 -13 -8 -8 -9 3
-16 2 -14 -4 1 -5 -9 -15 -23 -23 -14 -7 -38 -20 -55 -29 -72 -40 -116 -58
-127 -51 -7 5 -8 3 -3 -6 6 -10 4 -12 -8 -7 -8 3 -18 0 -20 -8 -4 -8 -18 -12
-36 -11 -16 1 -28 -1 -25 -5 2 -4 -3 -10 -12 -13 -8 -3 -12 -2 -9 3 3 5 0 13
-6 17 -7 4 -9 3 -6 -2 3 -6 3 -14 -1 -20 -7 -9 -106 -47 -167 -65 -16 -4 -62
-17 -101 -28 -40 -11 -87 -23 -105 -25 -19 -2 -62 -12 -97 -21 -35 -9 -70 -14
-77 -11 -8 3 -17 1 -20 -5 -4 -5 -10 -7 -14 -5 -4 3 -24 1 -44 -4 -21 -4 -39
-4 -43 1 -3 5 2 9 11 9 9 0 37 6 63 14 26 8 81 25 122 37 41 12 77 23 80 24
12 4 47 18 77 31 17 8 34 14 38 14 4 0 58 25 120 55 63 30 118 55 124 55 6 0
11 5 11 11 0 6 7 8 16 5 8 -3 13 -2 10 3 -3 5 17 21 46 36 72 38 89 48 108 65
10 8 46 35 81 60 83 59 219 172 293 243 32 31 62 57 67 57 5 0 9 4 9 10 0 5
21 31 46 57 26 26 58 65 72 85 13 21 28 38 32 38 5 0 24 21 43 47 19 27 53 71
74 98 65 86 103 143 103 154 0 6 4 11 9 11 5 0 13 9 16 21 4 12 18 37 31 56
13 20 24 43 23 52 0 9 -7 -1 -16 -21 -8 -21 -19 -38 -23 -38 -4 0 -13 -13 -20
-30 -7 -16 -16 -30 -20 -30 -4 0 -10 -10 -14 -22 -3 -13 -16 -35 -28 -50 -13
-14 -30 -36 -38 -48 -8 -12 -27 -36 -42 -54 -15 -17 -28 -34 -28 -39 0 -7 -24
-37 -80 -98 -14 -16 -36 -42 -49 -59 -65 -84 -312 -314 -431 -401 -174 -128
-410 -263 -550 -314 -348 -128 -538 -166 -809 -166 -121 0 -177 4 -182 12 -4
6 -11 9 -16 6 -6 -4 -39 -2 -74 4 -35 6 -75 12 -89 14 -83 10 -200 39 -189 46
8 5 -4 8 -28 7 -23 0 -47 3 -55 8 -7 5 -15 9 -18 10 -3 0 -13 4 -23 9 -10 4
-21 5 -24 2 -3 -4 -15 -1 -27 5 -11 7 -25 13 -31 15 -28 7 -185 62 -215 75
-19 8 -48 20 -63 27 -15 6 -26 15 -23 19 2 4 0 14 -6 22 -8 12 -9 12 -4 -2 6
-20 5 -21 -18 -12 -9 3 -13 11 -9 17 3 6 1 7 -6 3 -6 -4 -23 0 -37 9 -13 9
-29 13 -33 10 -5 -3 -11 -2 -13 2 -1 5 -28 21 -58 37 -30 16 -58 34 -62 40 -4
6 -13 12 -20 12 -7 1 -19 2 -26 3 -7 0 -10 6 -7 11 3 6 -2 10 -12 10 -15 0
-16 2 -3 10 16 10 15 10 -32 14 -7 1 -20 8 -28 16 -8 8 -27 21 -42 29 -15 8
-25 19 -21 24 3 6 1 7 -5 3 -7 -4 -23 4 -36 17 -14 14 -27 22 -30 19 -3 -3 -6
0 -6 7 0 7 -4 10 -9 7 -12 -8 -34 21 -26 33 3 6 0 9 -8 6 -18 -7 -109 63 -101
77 5 7 2 8 -5 4 -8 -5 -26 6 -47 27 -33 32 -34 36 -17 46 14 9 11 9 -15 4 -24
-4 -32 -2 -30 7 2 8 -10 20 -25 28 -16 7 -36 26 -45 41 -9 15 -34 42 -55 61
-28 24 -36 38 -32 54 2 11 2 15 -1 9 -4 -9 -11 -10 -25 -3 -24 13 -25 31 -1
24 14 -5 14 -4 2 4 -8 6 -17 9 -21 6 -9 -5 -79 81 -79 98 -1 16 -30 56 -30 41
0 -7 5 -15 10 -18 6 -3 10 -12 10 -18 0 -7 -9 1 -20 18 -14 22 -16 32 -8 42 8
10 7 12 -4 8 -8 -3 -24 6 -36 20 -12 14 -20 25 -17 25 3 0 -13 24 -35 52 -22
29 -40 58 -40 64 0 6 -9 19 -20 29 -11 10 -17 22 -14 26 3 5 1 9 -4 9 -5 0
-15 15 -23 33 -7 17 -23 46 -36 63 -13 17 -23 36 -23 43 0 7 -11 28 -24 48
-14 19 -22 42 -19 51 4 9 2 13 -4 9 -9 -6 -76 141 -76 169 0 7 -4 11 -8 8 -4
-2 -10 10 -14 27 -4 18 -14 48 -23 68 -9 20 -15 42 -13 49 1 6 -2 12 -6 12 -5
0 -10 11 -11 26 -1 14 -6 33 -12 43 -5 10 -14 36 -19 57 -5 22 -21 83 -35 137
-14 53 -26 106 -26 117 0 27 16 25 23 -2 4 -12 9 -20 12 -16 3 3 -1 25 -9 49
-17 52 -50 190 -65 273 -6 33 -10 123 -9 200 1 78 3 123 5 101 8 -86 45 -282
73 -386 116 -426 382 -813 640 -931 54 -25 169 -35 224 -20 25 7 45 8 55 2 14
-8 13 -11 -7 -16 -12 -3 -22 -10 -22 -16 0 -12 85 38 119 70 14 13 25 28 24
32 -1 4 7 16 17 25 11 10 20 24 20 32 0 7 5 13 10 13 6 0 10 7 10 16 0 8 4 13
9 9 6 -3 9 3 8 14 -2 26 66 122 76 107 5 -6 6 -1 2 11 -4 14 0 29 12 41 10 10
19 25 21 33 2 8 8 19 13 24 7 7 8 4 4 -6 -4 -10 -2 -20 3 -23 5 -3 10 0 9 7
-1 32 4 48 13 42 6 -4 9 -2 8 3 -4 14 54 89 79 103 13 7 21 14 19 17 -9 8 39
52 52 47 7 -2 10 -1 7 5 -7 11 63 76 77 72 5 -1 7 2 4 7 -8 12 34 42 47 34 6
-3 7 -1 3 5 -4 7 3 14 19 18 14 3 24 9 21 12 -3 3 6 11 20 19 32 16 37 16 28
1 -4 -8 -3 -10 2 -5 5 5 9 14 9 20 0 7 11 11 25 9 18 -2 21 0 11 6 -10 7 -6
13 18 23 17 8 31 17 31 21 0 5 3 7 8 7 22 -4 42 2 37 11 -3 6 3 10 14 10 12 0
21 4 21 10 0 5 3 9 8 8 9 -3 103 31 118 43 6 5 27 11 48 15 21 3 58 14 83 25
49 21 119 39 168 44 17 2 50 9 75 15 25 6 106 20 180 31 74 10 164 23 200 28
36 5 74 13 84 17 14 5 17 4 12 -5 -6 -9 2 -8 22 3 16 8 43 15 58 15 36 0 91
11 219 46 55 15 112 29 128 32 15 3 27 9 27 15 0 5 6 8 13 6 6 -1 32 6 57 16
25 11 50 19 57 17 6 -1 14 3 18 9 3 5 14 10 23 10 13 0 14 -2 4 -9 -11 -7 -11
-9 1 -14 12 -4 14 0 11 19 -3 16 0 24 10 24 7 0 19 7 26 15 7 8 16 12 21 9 5
-3 9 0 9 5 0 6 9 11 20 11 11 0 20 4 20 10 0 5 7 6 17 3 12 -5 14 -3 8 7 -6
10 -4 12 9 7 9 -4 15 -3 12 1 -2 4 16 21 42 37 26 17 48 28 49 25 0 -3 11 7
23 23 12 15 27 27 33 26 8 0 8 -2 0 -6 -7 -2 -13 -9 -13 -14 0 -5 9 -4 19 3
11 7 17 18 13 27 -4 10 -1 13 12 8 10 -4 15 -3 11 3 -3 6 -1 10 4 10 6 0 11 7
11 15 0 8 6 12 13 9 8 -3 20 3 28 13 13 17 13 17 -5 3 -17 -13 -19 -13 -14 0
2 8 14 16 26 18 12 2 20 7 17 12 -3 4 10 22 29 38 19 17 33 32 30 35 -2 2 3
10 13 18 15 13 16 12 9 -6 -4 -12 5 -6 23 15 17 19 30 40 31 45 0 6 -12 -3
-26 -20 l-26 -30 22 33 c12 17 25 32 30 32 4 0 20 20 34 45 15 25 29 45 32 45
3 0 2 -5 -2 -12 -4 -7 -3 -8 5 -4 6 4 9 12 5 17 -3 5 6 25 20 44 14 18 26 40
26 49 0 8 8 20 18 25 9 6 13 11 9 11 -5 0 -5 5 -1 11 4 8 9 7 15 -2 6 -9 7 -2
3 17 -3 18 -1 34 5 38 6 4 15 25 21 47 6 22 14 38 18 35 5 -3 8 7 7 22 0 15 5
38 12 52 41 87 57 349 29 475 -24 109 -27 117 -47 162 -10 24 -19 47 -19 52 0
5 -7 14 -15 21 -9 7 -14 19 -11 26 3 8 -2 20 -10 29 -13 13 -14 18 -4 31 7 8
10 17 6 21 -3 3 -6 1 -6 -5 0 -7 -7 -12 -15 -12 -8 0 -15 7 -15 16 0 8 -4 13
-9 10 -5 -4 -12 7 -16 24 -4 18 -11 27 -18 23 -6 -4 -8 0 -4 10 4 12 2 14 -10
10 -9 -4 -14 -2 -10 3 3 5 -10 20 -29 33 -27 19 -32 27 -23 38 9 11 9 12 -5 7
-9 -3 -16 -1 -16 6 0 6 -5 8 -10 5 -6 -3 -13 1 -16 9 -3 8 -14 18 -25 21 -11
4 -17 9 -15 13 4 8 -14 27 -27 29 -22 3 -115 68 -110 76 4 6 -1 8 -10 4 -10
-3 -17 -2 -17 4 0 6 -4 8 -9 4 -5 -3 -15 1 -23 8 -7 7 -54 28 -105 47 -50 18
-90 37 -88 41 3 4 -15 10 -40 14 -25 3 -43 10 -40 16 4 5 -4 9 -17 9 -54 0
-67 4 -57 16 8 9 5 11 -10 7 -12 -3 -42 0 -69 7 -53 14 -205 41 -239 42 -13 0
-23 3 -23 7 0 3 -89 7 -197 9 -249 3 -450 -20 -615 -71 -27 -8 -48 -13 -48
-10 0 3 -6 1 -12 -4 -20 -15 -50 -24 -43 -13 3 6 1 10 -4 10 -6 0 -11 -7 -11
-16 0 -8 -4 -13 -10 -9 -5 3 -17 2 -27 -3 -48 -25 -119 -47 -136 -43 -5 1 -6
-3 -2 -9 6 -9 -10 -14 -42 -13 -7 1 -10 -4 -6 -10 4 -6 0 -8 -10 -4 -8 3 -18
0 -21 -8 -3 -8 -23 -19 -45 -26 -23 -7 -41 -15 -41 -19 0 -4 -21 -18 -47 -31
-27 -13 -51 -28 -54 -33 -4 -5 -14 -6 -23 -3 -9 4 -15 1 -13 -6 1 -7 -4 -11
-11 -9 -8 1 -11 -1 -8 -6 6 -10 -72 -54 -84 -47 -4 3 -7 -3 -6 -13 0 -10 -6
-16 -16 -16 -10 1 -15 -2 -12 -7 3 -5 -2 -9 -10 -9 -8 0 -22 -9 -30 -21 -9
-13 -19 -18 -27 -14 -8 6 -10 4 -4 -5 6 -10 4 -12 -9 -7 -9 4 -15 3 -12 -2 8
-13 -73 -83 -86 -75 -6 4 -9 3 -6 -2 6 -10 -69 -84 -77 -76 -3 3 -5 1 -5 -5 0
-17 -58 -75 -69 -69 -5 4 -13 1 -17 -5 -4 -8 -3 -9 4 -5 7 4 12 3 12 -3 0 -5
-3 -11 -8 -13 -4 -1 -22 -22 -40 -46 -19 -23 -39 -39 -44 -36 -6 4 -8 3 -5 -3
8 -12 -21 -55 -33 -48 -5 3 -12 0 -16 -6 -5 -8 -2 -10 7 -5 8 4 6 1 -3 -7 -10
-8 -15 -16 -12 -19 3 -4 1 -9 -4 -12 -6 -4 -9 4 -8 19 2 13 -1 22 -5 19 -5 -3
-7 -18 -4 -34 3 -16 0 -32 -6 -35 -5 -4 -14 -18 -19 -31 -5 -13 -15 -23 -22
-22 -8 2 -12 -5 -10 -16 2 -10 -1 -15 -7 -11 -7 4 -8 0 -4 -11 4 -12 3 -15 -6
-10 -6 4 -10 4 -9 -1 2 -4 -8 -26 -21 -48 -14 -22 -24 -43 -23 -47 1 -5 -2 -8
-7 -8 -5 0 -14 -13 -21 -30 -7 -16 -16 -27 -20 -25 -5 3 -12 0 -16 -6 -4 -8
-3 -9 4 -5 18 11 14 -6 -8 -34 -17 -21 -19 -21 -14 -5 5 16 4 17 -4 5 -6 -8
-7 -21 -3 -28 5 -9 1 -22 -11 -34 -10 -10 -16 -23 -13 -28 3 -4 2 -10 -2 -12
-10 -4 -43 -75 -43 -91 0 -7 -9 -33 -21 -56 -11 -24 -18 -45 -15 -48 3 -3 1
-14 -5 -25 -6 -11 -12 -27 -14 -36 -3 -9 -14 -51 -25 -92 -11 -41 -22 -86 -25
-100 -2 -14 -11 -63 -19 -109 -24 -131 -30 -212 -29 -411 1 -175 20 -364 41
-420 5 -14 9 -42 7 -63 -1 -26 1 -34 7 -25 7 9 8 6 5 -10 -3 -12 -1 -20 4 -16
8 5 13 -18 12 -53 -1 -7 3 -13 7 -13 4 0 13 -21 21 -47 7 -27 21 -67 31 -90
10 -22 17 -47 15 -55 -2 -7 -2 -9 1 -4 8 14 52 -103 46 -122 -5 -15 -4 -15 6
-2 9 12 11 10 7 -12 -3 -18 0 -28 9 -28 7 0 15 -14 19 -30 4 -17 11 -30 16
-30 5 0 9 -6 9 -14 0 -8 5 -16 10 -18 6 -2 12 -13 13 -25 0 -13 7 -25 14 -27
7 -3 13 -12 13 -20 0 -7 6 -16 14 -19 7 -3 16 -14 19 -26 4 -17 -1 -21 -38
-26 -74 -12 -144 2 -225 43 -41 22 -74 45 -72 51 1 7 -2 10 -8 6 -12 -8 -72
50 -62 60 4 3 2 5 -4 3 -13 -3 -70 53 -66 65 1 5 -2 6 -7 2 -6 -3 -18 7 -27
22 -10 15 -23 33 -29 38 -6 6 -32 44 -58 85 -26 41 -56 86 -67 98 -11 13 -20
29 -20 37 0 7 -9 24 -20 38 -11 14 -20 35 -20 46 0 12 -5 21 -11 21 -5 0 -7 5
-4 10 3 6 1 10 -5 10 -7 0 -9 7 -6 16 3 8 2 12 -4 9 -6 -3 -10 2 -10 12 0 11
-4 23 -9 28 -5 6 -23 55 -41 110 -18 55 -36 109 -40 120 -5 11 -11 31 -13 45
-3 14 -12 50 -21 80 -9 30 -18 75 -21 100 -3 25 -8 68 -12 95 -17 110 -3 462
18 450 5 -4 6 1 3 9 -3 9 -1 29 5 46 6 18 6 28 1 25 -13 -8 -13 -2 2 32 6 15
12 33 12 38 6 44 19 96 26 100 4 3 6 14 3 25 -3 12 0 20 7 20 7 0 9 8 5 20 -3
11 -2 20 3 20 5 0 9 8 8 18 0 9 4 16 9 15 6 -1 10 13 9 30 0 18 3 37 7 42 3 6
14 34 23 63 10 28 22 52 26 52 5 0 7 6 4 13 -6 17 21 69 31 59 5 -4 5 -1 1 6
-4 7 -1 24 8 37 9 13 16 32 16 41 0 10 3 14 7 11 7 -7 32 22 33 37 0 6 -7 1
-15 -10 -15 -19 -15 -19 -9 1 4 11 13 27 21 36 7 9 10 19 6 22 -3 4 -1 7 6 7
7 0 9 5 6 10 -3 6 -2 10 3 10 5 0 15 13 22 30 7 16 17 27 23 23 6 -3 7 -1 3 5
-3 6 7 35 24 64 16 29 34 62 39 73 5 11 18 29 30 39 11 11 21 24 21 29 0 6 -7
2 -16 -9 -14 -18 -15 -18 -4 4 6 12 15 22 20 22 6 0 10 6 10 14 0 16 26 40 32
29 3 -4 4 -3 2 2 -1 6 11 29 27 50 16 22 38 54 49 70 18 27 25 27 21 2 -1 -5
3 -6 9 -2 7 4 7 13 -1 27 -7 13 -7 18 -1 14 6 -3 13 3 17 14 3 11 11 20 16 20
6 0 7 5 4 10 -4 6 -1 9 7 8 7 -2 12 5 12 15 -1 10 0 16 3 14 6 -7 48 34 62 61
6 12 18 22 26 22 8 0 15 6 15 14 0 13 27 31 41 28 4 -1 6 6 5 16 -1 21 25 23
32 2 5 -13 3 -13 -14 0 -17 14 -18 13 -7 -1 7 -9 12 -18 10 -20 -1 -3 4 1 12
8 13 11 12 15 -4 33 -16 18 -14 24 7 21 4 0 12 8 18 19 6 11 15 18 21 15 5 -4
9 -3 8 2 -3 20 2 27 11 13 6 -10 10 -11 10 -2 0 27 19 53 32 45 5 -2 8 1 8 7
0 5 15 19 33 30 17 11 28 20 24 20 -4 0 -2 6 5 14 7 7 18 12 24 9 6 -2 17 4
25 14 12 16 12 17 -2 8 -14 -9 -14 -9 0 3 31 25 174 132 177 132 2 0 1 -8 -2
-17 -3 -10 2 -6 11 9 14 25 43 48 60 48 3 0 3 -5 -1 -12 -5 -7 -3 -8 5 -4 7 5
10 15 6 24 -3 9 -3 13 1 9 4 -4 14 -1 22 6 8 6 33 20 56 29 22 9 34 17 26 17
-8 1 18 17 59 36 40 19 77 33 81 30 5 -3 12 0 16 6 5 8 3 9 -6 4 -9 -6 -11 -4
-5 4 4 7 16 11 26 8 11 -3 17 -1 13 4 -3 5 2 9 10 9 9 0 16 4 16 8 0 4 17 14
38 21 20 8 55 22 77 31 55 24 142 56 190 70 22 6 49 15 60 20 33 14 97 33 124
36 14 1 50 9 78 17 29 9 63 13 75 10 11 -4 19 -2 15 3 -3 5 20 11 51 12 31 2
64 8 74 13 10 6 23 7 28 4 6 -3 10 -3 10 2 0 4 19 8 43 9 23 0 76 5 117 11 41
6 95 10 120 11 l45 0 -40 -9z m317 -614 c160 -19 294 -47 427 -92 231 -77 371
-151 501 -265 107 -94 156 -158 215 -279 61 -126 85 -219 92 -356 24 -470
-307 -963 -807 -1202 -208 -99 -400 -149 -800 -206 -403 -57 -610 -111 -836
-215 -275 -127 -507 -342 -674 -625 -94 -158 -108 -179 -144 -214 -21 -20 -41
-31 -50 -28 -48 18 -204 343 -280 582 -112 353 -127 788 -41 1155 82 344 252
685 476 953 203 244 469 451 753 588 379 181 773 250 1168 204z m-3019 -2722
c7 -9 5 -13 -7 -13 -11 0 -16 8 -15 28 0 15 3 21 6 12 3 -8 10 -21 16 -27z"/>
<path d="M2778 5833 c7 -3 16 -2 19 1 4 3 -2 6 -13 5 -11 0 -14 -3 -6 -6z"/>
<path d="M2630 5805 c-47 -13 -96 -28 -110 -35 l-25 -11 25 6 c14 3 59 15 100
26 41 11 88 22 105 25 16 3 31 7 34 10 11 10 -51 1 -129 -21z"/>
<path d="M2568 5813 c7 -3 16 -2 19 1 4 3 -2 6 -13 5 -11 0 -14 -3 -6 -6z"/>
<path d="M2422 5743 c-24 -8 -42 -17 -40 -18 7 -7 98 17 98 26 0 11 -6 11 -58
-8z"/>
<path d="M2350 5709 c0 -5 5 -7 10 -4 6 3 10 8 10 11 0 2 -4 4 -10 4 -5 0 -10
-5 -10 -11z"/>
<path d="M2281 5689 c-24 -11 -41 -22 -38 -25 5 -6 87 33 87 41 0 6 3 7 -49
-16z"/>
<path d="M4010 5660 c8 -5 20 -10 25 -10 6 0 3 5 -5 10 -8 5 -19 10 -25 10 -5
0 -3 -5 5 -10z"/>
<path d="M2140 5621 c-139 -70 -200 -105 -200 -114 0 -5 12 -1 27 8 15 10 61
36 102 57 42 22 80 44 86 49 5 5 16 9 25 9 9 0 25 7 36 15 34 26 1 16 -76 -24z"/>
<path d="M3018 5523 c7 -3 16 -2 19 1 4 3 -2 6 -13 5 -11 0 -14 -3 -6 -6z"/>
<path d="M3083 5523 c9 -2 23 -2 30 0 6 3 -1 5 -18 5 -16 0 -22 -2 -12 -5z"/>
<path d="M3163 5523 c9 -2 25 -2 35 0 9 3 1 5 -18 5 -19 0 -27 -2 -17 -5z"/>
<path d="M3283 5523 c9 -2 23 -2 30 0 6 3 -1 5 -18 5 -16 0 -22 -2 -12 -5z"/>
<path d="M1900 5489 c-14 -10 -29 -22 -35 -27 -5 -4 -37 -25 -70 -47 -71 -46
-160 -115 -149 -115 12 0 74 44 74 53 0 4 7 7 15 7 8 0 15 4 15 10 0 5 14 17
32 26 18 9 38 23 46 30 7 8 18 14 23 14 5 0 17 8 27 18 10 9 27 22 38 28 10 7
17 14 14 17 -3 3 -16 -3 -30 -14z"/>
<path d="M3598 5478 c5 -5 16 -8 23 -6 8 3 3 7 -10 11 -17 4 -21 3 -13 -5z"/>
<path d="M2678 5473 c6 -2 18 -2 25 0 6 3 1 5 -13 5 -14 0 -19 -2 -12 -5z"/>
<path d="M2628 5463 c7 -3 16 -2 19 1 4 3 -2 6 -13 5 -11 0 -14 -3 -6 -6z"/>
<path d="M2520 5440 c-13 -9 -13 -10 0 -10 8 0 22 5 30 10 13 9 13 10 0 10 -8
0 -22 -5 -30 -10z"/>
<path d="M3730 5440 c8 -5 20 -10 25 -10 6 0 3 5 -5 10 -8 5 -19 10 -25 10 -5
0 -3 -5 5 -10z"/>
<path d="M3820 5416 c0 -2 7 -7 16 -10 8 -3 12 -2 9 4 -6 10 -25 14 -25 6z"/>
<path d="M2270 5339 c0 -5 5 -7 10 -4 6 3 10 8 10 11 0 2 -4 4 -10 4 -5 0 -10
-5 -10 -11z"/>
<path d="M1620 5283 c0 -5 -17 -19 -38 -33 -45 -30 -266 -249 -258 -257 3 -3
16 7 30 23 44 52 97 104 106 104 6 0 10 5 10 10 0 10 44 52 92 90 54 42 82 70
71 70 -7 0 -13 -3 -13 -7z"/>
<path d="M2124 5275 c-10 -8 -14 -15 -8 -15 5 0 19 7 30 15 10 8 14 15 8 15
-5 0 -19 -7 -30 -15z"/>
<path d="M3338 5273 c7 -3 16 -2 19 1 4 3 -2 6 -13 5 -11 0 -14 -3 -6 -6z"/>
<path d="M2568 5263 c7 -3 16 -2 19 1 4 3 -2 6 -13 5 -11 0 -14 -3 -6 -6z"/>
<path d="M3418 5263 c7 -3 16 -2 19 1 4 3 -2 6 -13 5 -11 0 -14 -3 -6 -6z"/>
<path d="M1176 5181 c-4 -5 -2 -12 3 -15 5 -4 12 -2 15 3 4 5 2 12 -3 15 -5 4
-12 2 -15 -3z"/>
<path d="M1931 5164 c-19 -13 -31 -24 -27 -24 13 0 66 34 66 42 0 10 1 11 -39
-18z"/>
<path d="M3860 5143 c0 -1 10 -7 21 -14 17 -9 20 -8 14 2 -6 9 -3 10 11 5 10
-4 15 -3 10 1 -7 7 -56 13 -56 6z"/>
<path d="M1810 5079 c-22 -18 -22 -19 -3 -10 12 6 25 16 28 21 9 15 3 12 -25
-11z"/>
<path d="M4025 5051 c-6 -11 13 -26 22 -17 4 3 0 6 -8 6 -11 0 -11 2 1 10 9 6
10 10 3 10 -6 0 -14 -4 -18 -9z"/>
<path d="M1721 5010 c-13 -11 -19 -20 -14 -20 6 0 18 9 28 20 23 25 17 25 -14
0z"/>
<path d="M1659 4953 c-13 -16 -12 -17 4 -4 9 7 17 15 17 17 0 8 -8 3 -21 -13z"/>
<path d="M1226 4888 c-14 -18 -23 -35 -20 -38 3 -2 10 4 16 14 6 10 19 27 29
37 11 11 15 19 10 19 -5 0 -21 -14 -35 -32z"/>
<path d="M1684 4890 c0 -13 4 -16 10 -10 7 7 7 13 0 20 -6 6 -10 3 -10 -10z"/>
<path d="M1185 4832 c-19 -14 -37 -42 -27 -42 5 0 17 11 26 25 17 26 17 29 1
17z"/>
<path d="M1485 4790 c-10 -11 -14 -20 -9 -20 5 0 15 9 22 20 7 11 11 20 9 20
-2 0 -12 -9 -22 -20z"/>
<path d="M1109 4738 c-6 -12 -15 -25 -18 -28 -10 -9 -33 -52 -29 -56 2 -2 19
19 37 47 18 28 31 53 28 56 -3 2 -11 -6 -18 -19z"/>
<path d="M1373 4665 c-9 -24 1 -27 15 -5 8 13 8 20 2 20 -6 0 -13 -7 -17 -15z"/>
<path d="M1026 4617 c-9 -17 -29 -52 -43 -76 -14 -24 -21 -41 -15 -38 13 9 85
137 80 143 -3 2 -12 -11 -22 -29z"/>
<path d="M1260 4510 c-9 -6 -10 -10 -3 -10 6 0 15 5 18 10 8 12 4 12 -15 0z"/>
<path d="M937 4461 c-9 -16 -17 -35 -17 -43 1 -7 10 4 21 25 24 46 21 59 -4
18z"/>
<path d="M1229 4463 c-13 -16 -12 -17 4 -4 9 7 17 15 17 17 0 8 -8 3 -21 -13z"/>
<path d="M5449 4455 c17 -33 31 -51 31 -40 0 6 -10 21 -21 35 -13 17 -17 18
-10 5z"/>
<path d="M901 4384 c0 -11 3 -14 6 -6 3 7 2 16 -1 19 -3 4 -6 -2 -5 -13z"/>
<path d="M1144 4336 c-10 -8 -17 -16 -14 -19 3 -2 14 4 24 14 23 22 18 25 -10
5z"/>
<path d="M865 4319 c-4 -6 -5 -12 -2 -15 2 -3 7 2 10 11 7 17 1 20 -8 4z"/>
<path d="M4850 4297 c0 -7 -5 -18 -11 -24 -6 -6 -12 -30 -13 -52 -2 -25 1 -36
6 -29 5 7 6 -48 4 -122 -5 -175 -5 -165 -17 -235 -6 -33 -12 -69 -14 -80 -8
-64 -82 -264 -104 -282 -10 -9 -11 -13 -2 -13 7 0 9 -5 6 -10 -4 -6 -11 -7
-17 -4 -7 4 -8 2 -4 -4 4 -6 -1 -26 -11 -44 -9 -18 -18 -39 -19 -46 -1 -7 -15
-24 -31 -38 -16 -14 -22 -24 -14 -24 11 0 11 -4 -2 -18 -10 -10 -17 -24 -17
-31 0 -7 -5 -9 -12 -5 -7 4 -8 3 -4 -4 4 -7 2 -12 -4 -12 -6 0 -13 -8 -17 -17
-11 -32 -104 -143 -114 -137 -5 3 -8 0 -7 -8 2 -7 -2 -12 -9 -11 -8 2 -10 -4
-6 -14 5 -12 3 -14 -7 -8 -8 5 -11 4 -6 -3 3 -6 -3 -16 -14 -22 -11 -6 -20
-17 -20 -25 0 -7 -5 -17 -12 -21 -8 -5 -9 -2 -5 9 3 9 2 19 -4 22 -5 4 -8 1
-7 -7 2 -7 -4 -12 -12 -10 -12 3 -12 1 -3 -9 9 -9 6 -17 -13 -36 -13 -13 -33
-25 -43 -26 -11 -1 -17 -5 -15 -9 3 -5 10 -5 16 -2 7 4 8 2 4 -4 -4 -6 -14 -8
-23 -5 -10 4 -14 2 -10 -4 4 -5 -5 -15 -19 -22 -15 -6 -22 -16 -18 -23 5 -7 3
-8 -6 -3 -8 5 -20 -1 -32 -16 -11 -13 -17 -17 -13 -9 4 8 0 7 -9 -4 -9 -10
-20 -15 -27 -10 -9 5 -10 2 -6 -9 8 -22 -9 -22 -23 1 -10 15 -10 14 -5 -5 5
-18 -1 -25 -27 -39 -18 -9 -35 -20 -38 -23 -3 -3 -23 -15 -45 -26 -22 -11 -42
-23 -45 -26 -15 -18 -207 -100 -226 -96 -16 3 -21 0 -17 -10 3 -7 -2 -13 -11
-13 -9 0 -60 -14 -113 -31 -54 -18 -111 -31 -128 -31 -22 1 -26 -2 -15 -9 12
-8 9 -10 -10 -8 -14 1 -27 0 -30 -1 -3 -1 -13 -3 -24 -5 -10 -2 -39 -8 -65
-14 -70 -16 -114 -23 -139 -22 -13 1 -31 -3 -40 -8 -9 -5 -46 -12 -81 -15 -35
-4 -67 -8 -70 -10 -3 -2 -35 -7 -71 -10 -73 -7 -100 -11 -215 -31 -112 -20
-125 -23 -164 -31 -27 -6 -32 -4 -26 6 5 9 4 11 -4 6 -8 -5 -9 -12 -2 -19 6
-9 2 -12 -15 -13 -22 -2 -128 -40 -149 -55 -36 -25 -109 -58 -118 -52 -6 3 -7
1 -3 -5 8 -13 -28 -35 -39 -24 -5 4 -5 1 -1 -5 4 -7 3 -13 -2 -13 -14 0 -122
-105 -122 -119 0 -6 -7 -11 -16 -11 -10 0 -14 -6 -11 -14 3 -8 0 -16 -7 -19
-6 -3 -27 -32 -45 -66 -18 -34 -37 -61 -43 -61 -5 0 -8 -6 -5 -14 3 -8 -3 -22
-13 -31 -11 -10 -17 -22 -13 -27 3 -6 1 -13 -4 -17 -5 -3 -22 -32 -38 -63 -16
-31 -34 -54 -39 -51 -5 4 -7 -1 -3 -11 4 -10 1 -19 -8 -22 -8 -3 -11 -12 -8
-21 5 -12 3 -14 -7 -8 -8 5 -11 4 -6 -3 8 -13 -6 -40 -47 -94 -16 -21 -26 -42
-23 -47 3 -5 -3 -20 -14 -33 -11 -14 -17 -27 -15 -30 3 -3 -5 -16 -17 -30 -25
-28 -28 -34 -28 -75 0 -64 1 -75 7 -69 10 10 65 -36 59 -50 -3 -9 0 -11 11 -7
12 5 14 3 8 -7 -5 -9 -4 -11 3 -6 14 9 55 -18 44 -28 -4 -4 -2 -7 3 -6 22 5
36 -1 29 -12 -5 -8 -2 -9 9 -5 10 3 17 2 17 -3 0 -5 9 -12 20 -15 11 -4 18
-11 15 -16 -3 -5 2 -6 11 -2 12 4 15 3 10 -5 -5 -8 -2 -10 8 -6 9 3 16 1 16
-5 0 -6 7 -11 16 -11 8 0 13 -4 10 -8 -3 -5 0 -9 7 -9 22 0 87 -45 81 -55 -5
-7 -1 -7 11 -1 13 8 29 4 64 -15 49 -26 230 -102 243 -102 5 0 29 -10 53 -21
25 -12 48 -19 52 -16 3 4 20 0 37 -7 17 -7 37 -11 45 -8 7 2 16 0 20 -6 3 -6
26 -13 51 -16 25 -3 68 -8 95 -11 28 -4 64 -10 80 -14 17 -4 127 -8 245 -9
178 -1 234 2 325 19 112 20 154 27 190 32 11 1 25 5 30 9 12 7 87 23 98 20 4
-1 7 3 7 9 0 5 4 8 9 5 7 -5 66 18 114 45 10 5 28 7 39 3 14 -4 18 -2 14 5 -4
6 0 11 11 11 10 0 29 9 42 19 14 10 30 17 36 15 7 -3 18 2 25 11 7 8 20 15 29
15 9 0 21 4 27 9 17 17 84 51 100 51 8 0 13 4 10 9 -3 5 1 12 10 15 10 4 13 2
8 -7 -8 -12 18 5 46 32 8 8 29 20 47 28 18 7 33 18 33 24 0 6 9 8 23 4 14 -4
18 -3 9 3 -10 7 -10 11 2 21 8 7 21 9 27 5 8 -4 9 -3 5 4 -7 11 6 17 27 13 5
-1 5 4 1 10 -5 9 -2 10 9 6 10 -4 16 -2 14 6 -1 7 4 11 11 9 6 -1 11 2 10 6
-4 11 66 72 82 72 8 0 10 3 7 7 -4 3 7 16 23 28 16 12 27 25 23 28 -3 4 1 7
11 7 9 0 19 7 22 15 3 8 14 17 24 20 10 3 17 13 16 23 0 10 6 17 16 16 11 -1
14 4 11 14 -5 11 -3 13 8 7 8 -4 11 -5 8 -1 -5 6 13 29 107 134 20 22 34 30
38 23 4 -6 1 -11 -8 -11 -8 0 -18 -9 -21 -20 -3 -11 -15 -25 -25 -30 -12 -7
-17 -16 -13 -27 4 -9 2 -14 -3 -10 -6 3 -16 2 -24 -4 -10 -6 -11 -9 -3 -9 7 0
-2 -20 -20 -44 -27 -36 -35 -42 -52 -34 -19 9 -19 8 -2 -5 17 -14 15 -18 -30
-68 -75 -83 -221 -226 -294 -288 -78 -66 -212 -161 -226 -161 -6 0 -16 -7 -23
-15 -12 -15 -116 -76 -126 -74 -4 0 -10 -3 -13 -8 -11 -17 -72 -42 -89 -37
-11 4 -13 3 -5 -3 7 -5 -1 -14 -25 -25 -106 -47 -133 -58 -145 -58 -7 0 -22
-7 -33 -15 -10 -8 -28 -15 -40 -15 -11 0 -24 -3 -28 -7 -11 -11 -79 -32 -88
-27 -4 3 -8 1 -8 -4 0 -4 -26 -14 -57 -20 -32 -6 -69 -14 -83 -17 -14 -4 -46
-11 -72 -15 -27 -5 -52 -11 -56 -14 -8 -5 -116 -16 -207 -21 -27 -1 -66 -5
-85 -9 -19 -3 -80 -2 -135 2 -55 5 -111 5 -125 1 -30 -9 104 -14 270 -11 405
8 839 146 1185 376 33 22 63 44 67 50 4 6 8 7 8 3 0 -5 13 2 28 15 16 12 41
32 56 43 15 11 40 31 56 45 15 14 56 50 90 80 81 72 157 150 218 226 27 34 59
72 71 85 12 13 32 40 44 59 11 19 36 54 55 78 27 33 32 45 23 56 -9 10 -7 17
6 27 16 13 17 12 4 -3 -7 -10 -9 -18 -4 -18 10 0 47 50 72 99 11 19 11 22 -1
16 -8 -4 -8 -2 2 7 20 18 31 36 86 145 26 51 52 89 57 86 6 -3 7 -1 3 5 -3 6
5 37 20 69 57 128 134 340 134 370 0 8 4 12 8 9 4 -3 8 13 9 35 0 22 5 45 10
52 20 24 57 279 55 372 -1 39 1 46 9 30 8 -18 9 -17 5 5 -9 43 -9 238 -1 251
5 7 4 10 -2 6 -10 -6 -30 132 -26 173 1 8 -4 40 -11 70 -8 30 -26 110 -42 178
-15 67 -32 122 -36 122 -5 0 -6 5 -3 10 4 6 2 17 -4 24 -7 8 -11 18 -10 22 2
10 -5 32 -34 94 -12 24 -20 53 -19 63 0 11 -2 17 -5 13 -9 -9 -45 75 -39 91 3
7 0 12 -7 10 -7 -1 -12 8 -11 20 0 13 -2 21 -4 18 -7 -7 -32 15 -32 29 0 7 4
6 9 -2 7 -11 9 -10 14 3 4 9 3 14 -2 11 -18 -12 -104 124 -95 151 5 14 4 15
-4 4 -8 -11 -13 -7 -26 18 -18 33 -26 39 -26 18z m51 -99 c293 -494 395 -1055
293 -1618 -39 -214 -138 -483 -252 -685 -228 -406 -536 -704 -935 -906 -221
-112 -356 -160 -572 -203 -587 -118 -1185 10 -1680 357 -100 70 -115 86 -115
119 0 27 133 282 323 620 125 224 302 344 613 418 46 11 198 35 339 55 371 52
545 90 761 166 370 130 702 378 903 673 157 231 244 462 272 719 11 103 8 309
-5 340 -5 10 -4 17 2 17 5 0 29 -32 53 -72z m-63 -2538 c-7 -11 -15 -15 -17
-9 -2 6 3 15 10 20 20 12 21 11 7 -11z"/>
<path d="M4281 2686 c-42 -50 -392 -251 -473 -271 l-27 -7 26 -51 c38 -77 373
-697 435 -806 29 -52 58 -96 65 -98 15 -5 191 164 265 256 34 42 81 106 105
142 l44 67 -119 218 c-66 121 -159 293 -207 384 -48 91 -90 169 -94 173 -4 4
-13 1 -20 -7z m46 -88 c15 -28 26 -59 25 -67 -2 -9 -1 -13 3 -9 4 4 25 -28 47
-72 21 -44 43 -80 49 -80 5 0 8 -3 7 -7 -4 -14 13 -53 22 -53 5 0 7 -7 4 -15
-4 -8 -1 -15 5 -15 7 0 19 -15 27 -32 8 -18 27 -55 44 -83 52 -89 71 -125 65
-125 -3 0 -14 15 -25 33 -22 35 -26 32 -8 -7 6 -14 19 -28 30 -31 10 -4 18
-11 18 -16 0 -5 12 -27 26 -49 26 -38 29 -77 6 -72 -7 1 -11 -1 -11 -5 3 -19
-3 -33 -32 -69 -17 -22 -35 -38 -40 -37 -4 2 -6 -3 -3 -10 2 -7 -4 -24 -16
-37 -11 -13 -20 -27 -20 -31 0 -5 -7 -6 -15 -3 -11 5 -13 2 -9 -10 8 -21 -4
-20 -29 2 -20 17 -20 17 -1 -13 18 -27 18 -29 1 -22 -11 4 -16 3 -12 -3 3 -5
-3 -18 -15 -30 -22 -22 -35 -27 -24 -8 4 7 3 8 -5 4 -9 -6 -9 -11 1 -24 7 -9
8 -13 2 -9 -6 3 -25 -12 -43 -33 -27 -33 -36 -38 -51 -30 -21 11 -38 -4 -19
-16 8 -5 9 -3 4 6 -6 9 -4 11 4 6 9 -6 8 -12 -4 -26 -21 -24 -44 -16 -38 13 3
16 2 18 -5 9 -7 -11 -11 -7 -16 15 -4 15 -15 36 -23 45 -8 10 -13 24 -10 33 4
8 1 14 -5 12 -7 -1 -12 3 -13 8 0 6 -9 24 -20 40 -12 17 -27 44 -35 60 -8 17
-19 33 -25 37 -6 5 -4 8 4 8 10 0 8 5 -6 17 -11 10 -26 32 -35 48 -8 17 -31
58 -51 93 -20 34 -33 62 -30 62 4 0 -2 7 -13 16 -10 8 -13 12 -6 9 11 -6 11
-3 0 14 -7 12 -16 21 -21 21 -4 0 -6 4 -3 9 3 5 -1 14 -9 21 -8 7 -12 16 -9
21 3 5 1 9 -4 9 -5 0 -14 12 -20 26 -7 14 -8 23 -3 20 5 -3 11 1 14 8 4 10 0
14 -13 11 -20 -4 -34 20 -23 37 3 7 1 8 -5 4 -8 -4 -12 0 -12 12 0 10 -9 27
-20 37 -13 12 -18 26 -14 39 4 17 3 18 -5 6 -8 -12 -12 -9 -17 17 -4 18 -11
30 -16 27 -6 -4 -5 2 1 14 6 11 41 34 78 52 38 18 75 36 83 41 8 5 26 15 40
21 14 7 27 15 30 18 3 4 26 16 51 28 26 13 54 31 63 41 10 11 28 18 41 17 16
-2 22 2 20 13 -2 16 44 52 57 44 4 -2 20 -27 35 -55z"/>
<path d="M4406 2397 c3 -10 9 -15 12 -12 3 3 0 11 -7 18 -10 9 -11 8 -5 -6z"/>
<path d="M3985 2111 c-3 -5 -2 -12 3 -15 5 -3 9 1 9 9 0 17 -3 19 -12 6z"/>
<path d="M4046 1987 c3 -10 9 -15 12 -12 3 3 0 11 -7 18 -10 9 -11 8 -5 -6z"/>
<path d="M4366 1887 c3 -10 9 -15 12 -12 3 3 0 11 -7 18 -10 9 -11 8 -5 -6z"/>
<path d="M4446 1755 c4 -8 8 -15 10 -15 2 0 4 7 4 15 0 8 -4 15 -10 15 -5 0
-7 -7 -4 -15z"/>
<path d="M4220 1681 c0 -6 4 -13 10 -16 6 -3 7 1 4 9 -7 18 -14 21 -14 7z"/>
<path d="M2828 2293 c7 -3 16 -2 19 1 4 3 -2 6 -13 5 -11 0 -14 -3 -6 -6z"/>
<path d="M3944 1979 c-3 -6 -2 -15 3 -20 5 -5 9 -1 9 11 0 23 -2 24 -12 9z"/>
<path d="M4643 1602 c-1 -22 0 -24 9 -8 6 10 6 22 2 26 -5 5 -10 -3 -11 -18z"/>
<path d="M4534 1580 c0 -13 4 -16 10 -10 7 7 7 13 0 20 -6 6 -10 3 -10 -10z"/>
<path d="M1810 1541 c0 -6 4 -13 10 -16 6 -3 7 1 4 9 -7 18 -14 21 -14 7z"/>
<path d="M4444 1508 l-19 -23 23 19 c12 11 22 21 22 23 0 8 -8 2 -26 -19z"/>
<path d="M4460 1490 c-9 -6 -10 -10 -3 -10 6 0 15 5 18 10 8 12 4 12 -15 0z"/>
<path d="M4246 1443 c-4 -9 -4 -14 0 -10 4 4 13 -1 21 -11 12 -15 13 -14 2 8
-16 33 -16 33 -23 13z"/>
<path d="M4483 1373 c0 -9 4 -10 14 -2 7 6 13 12 13 14 0 1 -6 2 -13 2 -8 0
-14 -6 -14 -14z"/>
<path d="M4327 1295 c3 -8 9 -12 14 -9 12 7 11 11 -5 17 -10 4 -13 1 -9 -8z"/>
<path d="M4245 1220 c-3 -6 1 -7 9 -4 18 7 21 14 7 14 -6 0 -13 -4 -16 -10z"/>
<path d="M4175 1139 c-4 -6 -4 -13 -1 -16 3 -4 6 -1 6 6 0 7 5 9 12 5 7 -4 8
-3 4 4 -9 15 -13 15 -21 1z"/>
<path d="M840 4265 c0 -8 2 -15 4 -15 2 0 6 7 10 15 3 8 1 15 -4 15 -6 0 -10
-7 -10 -15z"/>
<path d="M5552 4250 c0 -14 2 -19 5 -12 2 6 2 18 0 25 -3 6 -5 1 -5 -13z"/>
<path d="M825 4220 c-4 -12 -5 -24 -2 -27 3 -2 8 5 12 17 4 12 5 24 2 27 -3 2
-8 -5 -12 -17z"/>
<path d="M791 4144 c-15 -61 -8 -68 9 -9 7 25 10 48 8 51 -3 2 -11 -16 -17
-42z"/>
<path d="M1051 4172 c-17 -31 -13 -40 5 -14 9 13 14 26 11 29 -3 2 -10 -4 -16
-15z"/>
<path d="M5025 4099 c-4 -6 -5 -12 -2 -15 2 -3 7 2 10 11 7 17 1 20 -8 4z"/>
<path d="M765 4069 c-4 -6 -5 -12 -2 -15 2 -3 7 2 10 11 7 17 1 20 -8 4z"/>
<path d="M966 4043 c-6 -14 -5 -15 5 -6 7 7 10 15 7 18 -3 3 -9 -2 -12 -12z"/>
<path d="M738 3992 c-9 -29 -14 -52 -12 -52 8 0 35 75 32 89 -2 8 -10 -9 -20
-37z"/>
<path d="M712 3890 c0 -14 2 -19 5 -12 2 6 2 18 0 25 -3 6 -5 1 -5 -13z"/>
<path d="M701 3824 c0 -11 3 -14 6 -6 3 7 2 16 -1 19 -3 4 -6 -2 -5 -13z"/>
<path d="M4380 3651 c0 -6 4 -13 10 -16 6 -3 7 1 4 9 -7 18 -14 21 -14 7z"/>
<path d="M5771 3644 c0 -11 3 -14 6 -6 3 7 2 16 -1 19 -3 4 -6 -2 -5 -13z"/>
<path d="M5680 3569 c0 -20 16 -43 23 -32 3 4 -1 17 -9 28 -10 13 -14 15 -14
4z"/>
<path d="M5711 3504 c0 -11 3 -14 6 -6 3 7 2 16 -1 19 -3 4 -6 -2 -5 -13z"/>
<path d="M4471 3424 c0 -11 3 -14 6 -6 3 7 2 16 -1 19 -3 4 -6 -2 -5 -13z"/>
<path d="M5730 3424 c0 -8 5 -12 10 -9 6 3 10 1 10 -6 0 -7 2 -10 5 -7 8 7 -5
38 -16 38 -5 0 -9 -7 -9 -16z"/>
<path d="M633 3360 c0 -30 2 -43 4 -27 2 15 2 39 0 55 -2 15 -4 2 -4 -28z"/>
<path d="M4205 3399 c-3 -4 2 -6 10 -5 21 3 28 13 10 13 -9 0 -18 -4 -20 -8z"/>
<path d="M4131 3347 c-13 -21 -12 -21 5 -5 10 10 16 20 13 22 -3 3 -11 -5 -18
-17z"/>
<path d="M5251 3314 c0 -11 3 -14 6 -6 3 7 2 16 -1 19 -3 4 -6 -2 -5 -13z"/>
<path d="M4336 3248 c-31 -34 -56 -66 -56 -72 0 -5 8 0 18 13 9 13 36 43 60
68 39 42 48 53 38 53 -2 0 -29 -28 -60 -62z"/>
<path d="M4040 3240 c0 -5 5 -10 11 -10 5 0 7 5 4 10 -3 6 -8 10 -11 10 -2 0
-4 -4 -4 -10z"/>
<path d="M633 3185 c0 -27 2 -38 4 -22 2 15 2 37 0 50 -2 12 -4 0 -4 -28z"/>
<path d="M5795 3220 c3 -5 8 -10 11 -10 2 0 4 5 4 10 0 6 -5 10 -11 10 -5 0
-7 -4 -4 -10z"/>
<path d="M4515 3190 c-3 -5 -1 -10 4 -10 6 0 11 5 11 10 0 6 -2 10 -4 10 -3 0
-8 -4 -11 -10z"/>
<path d="M5800 3171 c0 -11 4 -22 9 -25 4 -3 6 6 3 19 -5 30 -12 33 -12 6z"/>
<path d="M4210 3115 c-24 -25 -39 -45 -34 -45 6 0 29 20 52 45 22 25 38 45 33
45 -4 0 -27 -20 -51 -45z"/>
<path d="M741 3134 c0 -11 3 -14 6 -6 3 7 2 16 -1 19 -3 4 -6 -2 -5 -13z"/>
<path d="M5816 3067 c3 -10 9 -15 12 -12 3 3 0 11 -7 18 -10 9 -11 8 -5 -6z"/>
<path d="M4105 3020 c-3 -5 -1 -10 4 -10 6 0 11 5 11 10 0 6 -2 10 -4 10 -3 0
-8 -4 -11 -10z"/>
<path d="M5826 3015 c4 -8 8 -15 10 -15 2 0 4 7 4 15 0 8 -4 15 -10 15 -5 0
-7 -7 -4 -15z"/>
<path d="M4064 2995 c-18 -14 -18 -14 4 -8 12 3 22 9 22 14 0 12 -3 11 -26 -6z"/>
<path d="M4025 2960 c-3 -6 1 -7 9 -4 18 7 21 14 7 14 -6 0 -13 -4 -16 -10z"/>
<path d="M3985 2939 c-4 -6 -17 -14 -29 -19 -12 -5 -15 -9 -6 -9 8 0 26 8 40
19 14 11 20 20 13 20 -6 0 -15 -5 -18 -11z"/>
<path d="M3895 2885 c-16 -14 -25 -25 -19 -25 10 0 54 37 54 45 0 8 -3 6 -35
-20z"/>
<path d="M3810 2840 c-18 -12 -2 -12 25 0 13 6 15 9 5 9 -8 0 -22 -4 -30 -9z"/>
<path d="M3775 2820 c-3 -5 -1 -10 4 -10 6 0 11 5 11 10 0 6 -2 10 -4 10 -3 0
-8 -4 -11 -10z"/>
<path d="M3745 2810 c-3 -5 -1 -10 4 -10 6 0 11 5 11 10 0 6 -2 10 -4 10 -3 0
-8 -4 -11 -10z"/>
<path d="M3665 2774 c-32 -16 -40 -23 -22 -20 28 7 100 46 82 46 -5 -1 -32
-12 -60 -26z"/>
<path d="M3545 2730 c-8 -13 5 -13 25 0 13 8 13 10 -2 10 -9 0 -20 -4 -23 -10z"/>
<path d="M3460 2700 c0 -5 7 -7 15 -4 8 4 15 8 15 10 0 2 -7 4 -15 4 -8 0 -15
-4 -15 -10z"/>
<path d="M3420 2690 c-13 -8 -13 -10 2 -10 9 0 20 5 23 10 8 13 -5 13 -25 0z"/>
<path d="M3368 2673 c7 -3 16 -2 19 1 4 3 -2 6 -13 5 -11 0 -14 -3 -6 -6z"/>
<path d="M3238 2643 c6 -2 18 -2 25 0 6 3 1 5 -13 5 -14 0 -19 -2 -12 -5z"/>
<path d="M3178 2633 c7 -3 16 -2 19 1 4 3 -2 6 -13 5 -11 0 -14 -3 -6 -6z"/>
<path d="M2873 2593 c9 -2 25 -2 35 0 9 3 1 5 -18 5 -19 0 -27 -2 -17 -5z"/>
<path d="M2785 2580 c-13 -5 -14 -9 -5 -9 8 0 24 4 35 9 13 5 14 9 5 9 -8 0
-24 -4 -35 -9z"/>
<path d="M2726 2572 c-3 -5 1 -9 9 -9 8 0 15 4 15 9 0 4 -4 8 -9 8 -6 0 -12
-4 -15 -8z"/>
<path d="M2638 2553 c7 -3 16 -2 19 1 4 3 -2 6 -13 5 -11 0 -14 -3 -6 -6z"/>
<path d="M2460 2523 c-14 -3 -29 -8 -34 -13 -5 -5 8 -5 29 0 20 4 39 11 42 14
7 6 4 6 -37 -1z"/>
<path d="M2363 2490 c-13 -5 -23 -11 -23 -14 0 -7 40 6 46 15 6 10 6 10 -23
-1z"/>
<path d="M1814 2458 l-19 -23 23 19 c21 18 27 26 19 26 -2 0 -12 -10 -23 -22z"/>
<path d="M2272 2458 c-29 -12 -51 -22 -49 -24 7 -7 82 18 97 32 17 17 19 17
-48 -8z"/>
<path d="M252 2433 c27 -67 40 -94 43 -91 7 6 -37 118 -46 118 -5 0 -4 -12 3
-27z"/>
<path d="M2190 2419 c0 -5 5 -7 10 -4 6 3 10 8 10 11 0 2 -4 4 -10 4 -5 0 -10
-5 -10 -11z"/>
<path d="M2106 2378 c-32 -18 -53 -34 -46 -36 7 -3 15 0 19 4 3 5 23 18 44 29
21 11 41 23 43 28 7 11 4 9 -60 -25z"/>
<path d="M1990 2300 c-18 -16 -36 -30 -41 -30 -5 0 -9 -7 -9 -15 0 -12 3 -12
19 3 39 34 55 47 75 59 17 10 18 12 5 13 -9 0 -31 -13 -49 -30z"/>
<path d="M311 2315 c-2 -16 31 -99 46 -116 7 -8 13 -19 13 -24 0 -5 6 -16 14
-24 8 -9 23 -34 35 -56 12 -22 21 -34 21 -28 0 19 -47 103 -54 96 -3 -4 -6 3
-6 15 0 12 -4 22 -10 22 -5 0 -10 6 -11 13 0 16 -47 115 -48 102z"/>
<path d="M1914 2236 c-3 -9 -10 -16 -15 -16 -12 0 -169 -168 -169 -182 0 -4
-10 -17 -23 -30 -37 -37 -43 -65 -7 -31 16 15 30 32 30 36 0 4 4 13 10 20 37
46 103 118 144 159 27 26 47 51 43 54 -4 4 -9 -1 -13 -10z"/>
<path d="M886 2203 c-6 -14 -5 -15 5 -6 7 7 10 15 7 18 -3 3 -9 -2 -12 -12z"/>
<path d="M450 2044 c0 -8 5 -12 10 -9 6 4 8 11 5 16 -9 14 -15 11 -15 -7z"/>
<path d="M470 2024 c0 -16 39 -74 50 -74 5 0 10 -6 10 -12 1 -20 57 -90 64
-79 4 5 1 13 -6 18 -7 4 -26 26 -41 48 -55 79 -77 108 -77 99z"/>
<path d="M540 1981 c0 -6 4 -13 10 -16 6 -3 7 1 4 9 -7 18 -14 21 -14 7z"/>
<path d="M1642 1913 c-21 -26 -28 -43 -18 -43 8 0 48 61 44 65 -3 3 -14 -7
-26 -22z"/>
<path d="M1935 1929 c-4 -6 -5 -12 -2 -15 2 -3 7 2 10 11 7 17 1 20 -8 4z"/>
<path d="M1582 1818 c-35 -59 -62 -121 -46 -108 7 7 14 16 14 21 0 4 14 31 32
58 17 28 29 54 26 57 -3 3 -15 -10 -26 -28z"/>
<path d="M675 1830 c3 -5 8 -10 11 -10 2 0 4 5 4 10 0 6 -5 10 -11 10 -5 0 -7
-4 -4 -10z"/>
<path d="M636 1807 c3 -10 9 -15 12 -12 3 3 0 11 -7 18 -10 9 -11 8 -5 -6z"/>
<path d="M685 1750 c3 -5 8 -10 11 -10 2 0 4 5 4 10 0 6 -5 10 -11 10 -5 0 -7
-4 -4 -10z"/>
<path d="M710 1742 c0 -11 60 -65 66 -59 2 2 -12 18 -31 36 -19 17 -35 28 -35
23z"/>
<path d="M1098 1713 c7 -3 16 -2 19 1 4 3 -2 6 -13 5 -11 0 -14 -3 -6 -6z"/>
<path d="M1020 1700 c-20 -6 -21 -8 -5 -8 11 0 31 4 45 8 20 6 21 8 5 8 -11 0
-31 -4 -45 -8z"/>
<path d="M948 1693 c7 -3 16 -2 19 1 4 3 -2 6 -13 5 -11 0 -14 -3 -6 -6z"/>
<path d="M5117 1640 c-3 -11 -3 -20 -1 -20 2 0 8 9 14 20 6 11 7 20 2 20 -6 0
-12 -9 -15 -20z"/>
<path d="M1490 1640 c0 -5 5 -10 11 -10 5 0 7 5 4 10 -3 6 -8 10 -11 10 -2 0
-4 -4 -4 -10z"/>
<path d="M5090 1586 c0 -7 -7 -19 -15 -26 -8 -7 -15 -17 -15 -22 0 -13 24 12
39 40 7 14 8 22 1 22 -5 0 -10 -6 -10 -14z"/>
<path d="M1431 1504 c0 -11 3 -14 6 -6 3 7 2 16 -1 19 -3 4 -6 -2 -5 -13z"/>
<path d="M5230 1259 c0 -5 5 -7 10 -4 6 3 10 8 10 11 0 2 -4 4 -10 4 -5 0 -10
-5 -10 -11z"/>
<path d="M850 1166 c0 -2 7 -7 16 -10 8 -3 12 -2 9 4 -6 10 -25 14 -25 6z"/>
<path d="M5129 1137 c6 -8 7 -18 3 -22 -4 -5 -1 -5 6 -1 10 6 10 11 1 22 -6 8
-14 14 -16 14 -3 0 0 -6 6 -13z"/>
<path d="M1016 982 c-3 -5 1 -15 8 -21 11 -10 14 -9 12 3 -3 21 -13 29 -20 18z"/>
<path d="M3995 940 c-3 -6 1 -7 9 -4 18 7 21 14 7 14 -6 0 -13 -4 -16 -10z"/>
<path d="M4667 739 c7 -7 15 -10 18 -7 3 3 -2 9 -12 12 -14 6 -15 5 -6 -5z"/>
<path d="M1990 630 c8 -5 20 -10 25 -10 6 0 3 5 -5 10 -8 5 -19 10 -25 10 -5
0 -3 -5 5 -10z"/>
<path d="M2170 576 c0 -2 7 -7 16 -10 8 -3 12 -2 9 4 -6 10 -25 14 -25 6z"/>
<path d="M2220 556 c0 -2 7 -6 15 -10 8 -3 15 -1 15 4 0 6 -7 10 -15 10 -8 0
-15 -2 -15 -4z"/>
<path d="M2280 540 c20 -13 43 -13 35 0 -3 6 -16 10 -28 10 -18 0 -19 -2 -7
-10z"/>
<path d="M2393 513 c9 -2 23 -2 30 0 6 3 -1 5 -18 5 -16 0 -22 -2 -12 -5z"/>
<path d="M2500 497 c36 -7 67 -11 69 -10 11 7 -9 12 -69 17 l-65 5 65 -12z"/>
<path d="M1685 491 c-6 -11 13 -26 22 -17 4 3 0 6 -8 6 -11 0 -11 2 1 10 9 6
10 10 3 10 -6 0 -14 -4 -18 -9z"/>
<path d="M3690 5090 c8 -5 20 -10 25 -10 6 0 3 5 -5 10 -8 5 -19 10 -25 10 -5
0 -3 -5 5 -10z"/>
<path d="M2782 4663 c-11 -10 -38 -52 -60 -93 -114 -215 -452 -849 -502 -940
-32 -58 -142 -262 -245 -455 -261 -487 -305 -567 -323 -588 -30 -34 -2 -29 39
7 142 129 486 282 744 332 l90 17 185 351 c101 193 209 399 240 458 50 98 70
126 70 98 0 -11 89 -180 281 -536 l109 -202 92 34 c51 19 130 55 177 80 105
56 241 152 241 171 0 8 -31 71 -69 141 -262 484 -350 649 -506 940 -54 101
-106 187 -116 192 -10 6 -110 10 -222 10 -181 0 -207 -2 -225 -17z m435 -18
c-3 -7 1 -12 11 -11 11 1 18 -8 20 -22 2 -12 7 -20 11 -18 4 3 8 0 8 -7 0 -7
12 -31 26 -54 15 -24 27 -46 27 -50 0 -5 6 -19 14 -33 7 -14 26 -50 43 -80 16
-30 38 -71 49 -90 11 -19 25 -48 32 -64 11 -24 11 -28 0 -20 -8 5 -2 -2 13
-16 15 -14 42 -56 60 -95 19 -38 39 -75 44 -81 6 -6 31 -51 55 -100 25 -49 50
-95 57 -101 6 -7 10 -27 8 -45 -4 -29 -3 -30 10 -12 14 18 14 18 15 -2 0 -12
16 -45 36 -74 20 -29 31 -49 25 -46 -7 5 -9 1 -5 -8 3 -9 11 -16 16 -16 6 0 5
-7 -3 -16 -11 -13 -10 -15 5 -12 12 2 20 -4 22 -15 1 -10 10 -27 20 -38 9 -10
14 -19 10 -19 -4 0 0 -7 8 -16 9 -8 14 -20 11 -25 -4 -5 -1 -9 6 -9 6 0 9 -8
6 -20 -3 -11 -2 -18 3 -15 4 3 10 -2 14 -10 3 -9 -7 -23 -27 -37 -18 -13 -28
-16 -22 -7 6 8 1 5 -10 -8 -12 -13 -29 -23 -38 -23 -10 0 -16 -4 -12 -10 7
-11 -50 -42 -60 -32 -3 4 -5 0 -3 -8 2 -9 -3 -14 -11 -12 -7 2 -24 -7 -36 -18
l-23 -21 -20 28 c-11 16 -24 41 -27 56 -4 15 -11 24 -16 21 -5 -3 -9 4 -9 15
0 10 -3 21 -7 23 -5 2 -20 28 -35 58 -33 66 -146 281 -193 365 -18 33 -65 123
-105 200 -40 77 -76 145 -80 150 -4 6 -39 72 -78 147 l-71 137 -18 -37 c-11
-20 -42 -80 -70 -132 -28 -52 -74 -140 -103 -195 -29 -55 -56 -104 -60 -110
-4 -5 -41 -75 -82 -155 -42 -80 -98 -188 -127 -241 -28 -53 -51 -103 -51 -110
0 -8 15 15 34 51 61 121 109 205 118 211 5 3 10 10 10 15 1 24 71 153 81 147
5 -3 7 -2 4 4 -5 9 56 139 72 153 11 9 71 136 71 149 0 8 6 11 16 7 8 -3 12
-2 9 3 -3 5 0 21 7 36 8 19 14 22 20 13 6 -8 7 -4 3 11 -5 17 -4 22 5 16 9 -5
11 -4 6 4 -4 6 1 24 11 39 10 15 24 40 31 56 l13 30 23 -45 c12 -24 39 -76 59
-115 20 -39 37 -76 37 -83 0 -6 4 -11 9 -11 5 0 17 -20 27 -45 9 -25 20 -45
25 -45 4 0 13 -16 20 -35 7 -19 17 -35 22 -35 5 0 6 -7 3 -16 -3 -8 -2 -12 4
-9 6 3 10 -3 10 -14 0 -11 5 -23 10 -26 6 -4 27 -39 46 -78 20 -40 52 -99 71
-132 19 -33 71 -130 115 -215 44 -85 86 -162 93 -170 7 -8 17 -27 20 -42 4
-16 11 -28 16 -28 5 0 9 -7 9 -15 0 -8 -7 -15 -15 -15 -8 0 -15 -4 -15 -8 0
-9 -149 -58 -162 -54 -5 1 -8 -3 -8 -9 0 -5 -5 -7 -10 -4 -6 4 -8 11 -5 16 4
5 2 9 -4 9 -6 0 -13 11 -17 24 -3 14 -14 32 -25 42 -10 9 -16 21 -13 25 3 5 0
9 -6 9 -6 0 -9 4 -6 9 3 4 -3 19 -15 32 -11 12 -17 30 -14 38 3 9 3 12 -1 8
-11 -10 -44 60 -38 80 5 15 4 16 -5 3 -8 -11 -11 -12 -11 -2 0 7 -12 29 -26
48 -15 19 -22 34 -16 34 6 0 14 -9 17 -21 4 -11 9 -18 12 -15 10 10 -27 57
-39 50 -7 -4 -8 -3 -4 4 4 7 2 12 -3 12 -6 0 -10 3 -9 8 1 4 -3 17 -10 30 -7
12 -10 28 -6 34 4 6 3 8 -3 5 -6 -4 -23 17 -38 46 -16 29 -37 67 -47 85 -11
20 -13 31 -6 26 7 -4 3 3 -9 15 -13 12 -23 28 -23 35 0 7 -9 21 -21 32 -20 18
-21 18 -35 -1 -8 -10 -14 -15 -14 -11 0 5 -25 -40 -55 -99 -30 -59 -59 -113
-65 -120 -6 -8 -29 -50 -50 -94 -23 -48 -44 -79 -52 -77 -7 1 -10 1 -5 -1 4
-3 7 -14 7 -26 0 -20 0 -20 -15 -1 -14 18 -14 17 -5 -9 5 -16 6 -26 1 -23 -5
3 -12 -1 -15 -10 -4 -10 -2 -13 6 -8 6 4 0 -8 -14 -27 -14 -19 -28 -42 -31
-52 -4 -10 -12 -15 -18 -11 -7 4 -7 -1 1 -16 10 -18 9 -21 -1 -15 -9 6 -10 3
-5 -10 6 -16 4 -16 -11 -4 -15 12 -16 12 -10 -4 8 -22 -51 -139 -66 -130 -6 3
-7 1 -3 -5 4 -7 1 -24 -7 -39 -8 -16 -22 -44 -32 -63 -15 -32 -65 -70 -65 -50
0 8 -53 0 -60 -10 -6 -8 -175 -53 -198 -53 -10 0 -29 -8 -44 -19 -22 -15 -32
-17 -49 -8 -11 7 -23 9 -27 6 -3 -3 1 -6 9 -6 8 0 -1 -9 -19 -20 -18 -11 -39
-20 -47 -20 -8 0 -15 -4 -15 -10 0 -5 -6 -10 -12 -10 -16 0 -121 -52 -129 -64
-4 -5 -12 -5 -19 -1 -9 5 -11 4 -6 -3 4 -7 2 -12 -3 -12 -18 0 -25 -3 -66 -31
-22 -15 -41 -26 -42 -25 -8 7 12 46 22 43 6 -3 12 1 12 9 0 7 -5 10 -11 7 -6
-4 -5 0 1 9 7 8 10 18 6 21 -3 4 -1 7 5 7 7 0 12 6 12 14 0 7 7 19 15 26 8 7
12 17 8 23 -4 6 0 8 10 4 10 -4 14 -2 11 7 -3 7 7 29 21 50 14 20 23 41 20 46
-3 5 2 15 10 23 16 16 85 146 85 160 0 5 14 28 31 53 16 24 44 74 61 109 16
36 33 63 38 60 4 -3 7 3 6 13 0 10 5 16 14 14 8 -2 12 0 8 4 -4 4 -2 14 5 22
9 13 9 14 0 8 -7 -4 -13 -5 -13 -1 0 6 31 57 40 65 4 3 12 20 19 38 8 17 18
32 23 32 5 0 7 4 4 9 -3 5 1 14 9 21 8 7 15 18 15 26 0 7 9 22 21 33 13 12 18
24 13 32 -5 8 -3 11 7 7 10 -4 14 3 15 23 1 36 51 112 66 103 7 -4 8 -3 4 4
-4 7 -1 24 7 39 8 16 33 67 57 116 30 60 47 83 53 75 5 -8 6 -5 2 10 -4 15 0
31 14 48 12 15 21 33 21 41 0 8 5 11 12 7 7 -4 8 -3 4 5 -4 6 1 23 11 39 11
15 30 48 43 74 13 26 28 44 34 41 5 -3 6 -1 3 4 -9 14 72 175 83 168 6 -4 7 1
3 11 -5 13 -3 15 7 9 8 -5 11 -4 7 3 -7 10 31 94 45 100 4 2 4 10 1 18 -5 13
8 19 30 15 5 -1 5 4 1 10 -14 24 27 29 224 28 163 0 203 -3 199 -14z"/>
<path d="M3226 4613 c-6 -14 -5 -15 5 -6 7 7 10 15 7 18 -3 3 -9 -2 -12 -12z"/>
<path d="M3600 3935 c0 -5 5 -17 10 -25 5 -8 10 -10 10 -5 0 6 -5 17 -10 25
-5 8 -10 11 -10 5z"/>
<path d="M2225 3561 c-3 -5 -2 -12 3 -15 5 -3 9 1 9 9 0 17 -3 19 -12 6z"/>
<path d="M3258 3508 c2 -10 6 -18 7 -18 1 0 5 8 7 18 3 11 0 19 -7 19 -7 0
-10 -8 -7 -19z"/>
<path d="M2461 3393 c-7 -8 -11 -16 -8 -19 2 -2 10 2 17 11 17 20 9 27 -9 8z"/>
<path d="M3797 3379 c7 -7 15 -10 18 -7 3 3 -2 9 -12 12 -14 6 -15 5 -6 -5z"/>
<path d="M2441 3344 c0 -11 3 -14 6 -6 3 7 2 16 -1 19 -3 4 -6 -2 -5 -13z"/>
<path d="M3336 3343 c-6 -14 -5 -15 5 -6 7 7 10 15 7 18 -3 3 -9 -2 -12 -12z"/>
<path d="M2066 3273 c-6 -14 -5 -15 5 -6 7 7 10 15 7 18 -3 3 -9 -2 -12 -12z"/>
<path d="M2391 3254 c0 -11 3 -14 6 -6 3 7 2 16 -1 19 -3 4 -6 -2 -5 -13z"/>
<path d="M2059 3233 c-13 -16 -12 -17 4 -4 16 13 21 21 13 21 -2 0 -10 -8 -17
-17z"/>
<path d="M1890 2955 c0 -5 5 -17 10 -25 5 -8 10 -10 10 -5 0 6 -5 17 -10 25
-5 8 -10 11 -10 5z"/>
<path d="M1800 2791 c0 -6 4 -13 10 -16 6 -3 7 1 4 9 -7 18 -14 21 -14 7z"/>
<path d="M1339 4373 c-13 -16 -12 -17 4 -4 16 13 21 21 13 21 -2 0 -10 -8 -17
-17z"/>
<path d="M1244 4309 c-4 -7 -3 -9 4 -5 5 3 13 0 15 -6 4 -9 6 -10 6 -1 1 17
-16 25 -25 12z"/>
<path d="M2407 4093 c3 -7 6 -13 8 -13 2 0 5 6 8 13 3 8 -1 14 -8 14 -7 0 -11
-6 -8 -14z"/>
<path d="M3897 3556 c-3 -8 1 -22 9 -33 14 -17 15 -17 6 2 -5 11 -7 26 -5 33
6 17 -4 15 -10 -2z"/>
<path d="M3820 3250 c-9 -6 -10 -10 -3 -10 6 0 15 5 18 10 8 12 4 12 -15 0z"/>
<path d="M3291 3194 c0 -11 3 -14 6 -6 3 7 2 16 -1 19 -3 4 -6 -2 -5 -13z"/>
<path d="M2715 2891 c-3 -5 -2 -12 3 -15 5 -3 9 1 9 9 0 17 -3 19 -12 6z"/>
<path d="M1646 2658 c3 -5 10 -6 15 -3 13 9 11 12 -6 12 -8 0 -12 -4 -9 -9z"/>
<path d="M1526 2341 c-4 -5 -2 -12 3 -15 5 -4 12 -2 15 3 4 5 2 12 -3 15 -5 4
-12 2 -15 -3z"/>
<path d="M1455 2259 c-4 -6 -4 -13 -1 -16 3 -4 6 -1 6 6 0 7 5 9 12 5 7 -4 8
-3 4 4 -9 15 -13 15 -21 1z"/>
<path d="M1196 1848 c3 -5 10 -6 15 -3 13 9 11 12 -6 12 -8 0 -12 -4 -9 -9z"/>
<path d="M4865 5301 c-3 -5 -2 -12 3 -15 5 -3 9 1 9 9 0 17 -3 19 -12 6z"/>
<path d="M916 5062 c-3 -5 1 -9 9 -9 8 0 12 4 9 9 -3 4 -7 8 -9 8 -2 0 -6 -4
-9 -8z"/>
<path d="M806 4977 c3 -10 9 -15 12 -12 3 3 0 11 -7 18 -10 9 -11 8 -5 -6z"/>
<path d="M819 4943 c-13 -16 -12 -17 4 -4 9 7 17 15 17 17 0 8 -8 3 -21 -13z"/>
<path d="M5235 4890 c10 -11 20 -20 23 -20 3 0 -3 9 -13 20 -10 11 -20 20 -23
20 -3 0 3 -9 13 -20z"/>
<path d="M5821 3784 c0 -11 3 -14 6 -6 3 7 2 16 -1 19 -3 4 -6 -2 -5 -13z"/>
<path d="M5901 3384 c0 -11 3 -14 6 -6 3 7 2 16 -1 19 -3 4 -6 -2 -5 -13z"/>
<path d="M5901 3274 c0 -11 3 -14 6 -6 3 7 2 16 -1 19 -3 4 -6 -2 -5 -13z"/>
<path d="M5810 2211 c0 -6 4 -13 10 -16 6 -3 7 1 4 9 -7 18 -14 21 -14 7z"/>
<path d="M440 1650 c6 -11 13 -20 16 -20 2 0 0 9 -6 20 -6 11 -13 20 -16 20
-2 0 0 -9 6 -20z"/>
<path d="M504 1499 c-3 -6 -1 -16 5 -22 9 -9 10 -7 5 7 -6 15 -4 17 6 11 9 -5
11 -4 6 3 -9 15 -13 15 -22 1z"/>
<path d="M675 1260 c10 -11 20 -20 23 -20 3 0 -3 9 -13 20 -10 11 -20 20 -23
20 -3 0 3 -9 13 -20z"/>
<path d="M1225 700 c-3 -5 -1 -10 4 -10 6 0 11 5 11 10 0 6 -2 10 -4 10 -3 0
-8 -4 -11 -10z"/>
<path d="M1446 525 c4 -8 11 -15 16 -15 6 0 5 6 -2 15 -7 8 -14 15 -16 15 -2
0 -1 -7 2 -15z"/>
</g>
</svg>
